STARTFONT 2.1
COMMENT Created by fdbbdf
FONT courier10bif
SIZE 10 78 78
FONTBOUNDINGBOX 11 12 -2 -4
STARTPROPERTIES 4
Ownership "  Copyright (c) 1984 Adobe Systems, Inc.  /adobe/fonttools/bitmaps/stdfontvec.ps TB12.bits  TOTAL BITMAP BYTES 921  GUIDELINES 0 0 6 8 0 0 0 0 0 -3 DONE  WIDTHERR -666 -666  "
FONT_ASCENT 8
FONT_DESCENT 4
DEFAULT_CHAR 32
ENDPROPERTIES
CHARS 95
STARTCHAR sp
ENCODING -1 32
SWIDTH 0 0
DWIDTH 7 0
BBX 0 0 0 0
BITMAP
ENDCHAR
STARTCHAR !
ENCODING -1 33
SWIDTH 0 0
DWIDTH 7 0
BBX 4 8 2 -1
BITMAP
3000
3000
2000
6000
4000
0000
c000
c000
ENDCHAR
STARTCHAR "
ENCODING -1 34
SWIDTH 0 0
DWIDTH 7 0
BBX 5 3 2 4
BITMAP
d800
d800
d800
ENDCHAR
STARTCHAR #
ENCODING -1 35
SWIDTH 0 0
DWIDTH 7 0
BBX 7 8 1 -1
BITMAP
1400
1400
7e00
2800
2800
fc00
5000
5000
ENDCHAR
STARTCHAR $
ENCODING -1 36
SWIDTH 0 0
DWIDTH 7 0
BBX 7 11 1 -3
BITMAP
0800
0800
3c00
6600
6000
3800
0c00
cc00
7800
2000
2000
ENDCHAR
STARTCHAR %
ENCODING -1 37
SWIDTH 0 0
DWIDTH 7 0
BBX 6 7 1 -1
BITMAP
6000
e400
d800
3000
6c00
9c00
1800
ENDCHAR
STARTCHAR &
ENCODING -1 38
SWIDTH 0 0
DWIDTH 7 0
BBX 7 8 0 -1
BITMAP
1800
3400
3000
3000
7a00
cc00
cc00
7600
ENDCHAR
STARTCHAR '
ENCODING -1 39
SWIDTH 0 0
DWIDTH 7 0
BBX 3 3 2 4
BITMAP
6000
c000
8000
ENDCHAR
STARTCHAR (
ENCODING -1 40
SWIDTH 0 0
DWIDTH 7 0
BBX 6 10 1 -3
BITMAP
0400
1800
3000
6000
6000
c000
c000
c000
4000
2000
ENDCHAR
STARTCHAR )
ENCODING -1 41
SWIDTH 0 0
DWIDTH 7 0
BBX 6 10 0 -3
BITMAP
1000
0800
0c00
0c00
0c00
1800
1800
3000
6000
8000
ENDCHAR
STARTCHAR *
ENCODING -1 42
SWIDTH 0 0
DWIDTH 7 0
BBX 5 4 2 3
BITMAP
2000
f800
6000
d000
ENDCHAR
STARTCHAR +
ENCODING -1 43
SWIDTH 0 0
DWIDTH 7 0
BBX 6 5 1 0
BITMAP
3000
3000
fc00
3000
3000
ENDCHAR
STARTCHAR ,
ENCODING -1 44
SWIDTH 0 0
DWIDTH 7 0
BBX 3 3 1 -2
BITMAP
6000
6000
c000
ENDCHAR
STARTCHAR -
ENCODING -1 45
SWIDTH 0 0
DWIDTH 7 0
BBX 5 1 1 2
BITMAP
f800
ENDCHAR
STARTCHAR .
ENCODING -1 46
SWIDTH 0 0
DWIDTH 7 0
BBX 2 2 1 -1
BITMAP
c000
c000
ENDCHAR
STARTCHAR /
ENCODING -1 47
SWIDTH 0 0
DWIDTH 7 0
BBX 5 10 1 -2
BITMAP
0800
0800
1000
1000
2000
2000
4000
4000
8000
8000
ENDCHAR
STARTCHAR 0
ENCODING -1 48
SWIDTH 0 0
DWIDTH 7 0
BBX 6 8 1 -1
BITMAP
3800
6c00
6c00
cc00
cc00
d800
d800
7000
ENDCHAR
STARTCHAR 1
ENCODING -1 49
SWIDTH 0 0
DWIDTH 7 0
BBX 6 8 0 -1
BITMAP
0400
3c00
0c00
1800
1800
3000
3000
fc00
ENDCHAR
STARTCHAR 2
ENCODING -1 50
SWIDTH 0 0
DWIDTH 7 0
BBX 7 8 0 -1
BITMAP
1c00
3600
0600
0c00
1800
3000
6000
fc00
ENDCHAR
STARTCHAR 3
ENCODING -1 51
SWIDTH 0 0
DWIDTH 7 0
BBX 7 8 0 -1
BITMAP
1c00
3600
0600
1c00
0c00
0c00
d800
7000
ENDCHAR
STARTCHAR 4
ENCODING -1 52
SWIDTH 0 0
DWIDTH 7 0
BBX 7 8 0 -1
BITMAP
0600
0e00
1600
2400
6c00
fe00
1800
3c00
ENDCHAR
STARTCHAR 5
ENCODING -1 53
SWIDTH 0 0
DWIDTH 7 0
BBX 7 8 1 -1
BITMAP
3e00
2000
6000
7800
0c00
0c00
d800
7000
ENDCHAR
STARTCHAR 6
ENCODING -1 54
SWIDTH 0 0
DWIDTH 7 0
BBX 7 8 1 -1
BITMAP
0e00
3800
6000
7800
cc00
cc00
cc00
7800
ENDCHAR
STARTCHAR 7
ENCODING -1 55
SWIDTH 0 0
DWIDTH 7 0
BBX 6 8 2 -1
BITMAP
fc00
cc00
1800
3000
3000
6000
c000
c000
ENDCHAR
STARTCHAR 8
ENCODING -1 56
SWIDTH 0 0
DWIDTH 7 0
BBX 6 8 1 -1
BITMAP
3800
6c00
6400
7c00
d800
8800
d800
7000
ENDCHAR
STARTCHAR 9
ENCODING -1 57
SWIDTH 0 0
DWIDTH 7 0
BBX 6 8 1 -1
BITMAP
3800
6c00
cc00
cc00
7c00
0800
1800
f000
ENDCHAR
STARTCHAR :
ENCODING -1 58
SWIDTH 0 0
DWIDTH 7 0
BBX 3 6 2 -1
BITMAP
6000
6000
0000
0000
c000
c000
ENDCHAR
STARTCHAR ;
ENCODING -1 59
SWIDTH 0 0
DWIDTH 7 0
BBX 4 7 1 -2
BITMAP
3000
3000
0000
0000
6000
6000
c000
ENDCHAR
STARTCHAR <
ENCODING -1 60
SWIDTH 0 0
DWIDTH 7 0
BBX 6 6 1 -1
BITMAP
0c00
3800
e000
6000
3000
1800
ENDCHAR
STARTCHAR =
ENCODING -1 61
SWIDTH 0 0
DWIDTH 7 0
BBX 5 3 1 1
BITMAP
f800
0000
f800
ENDCHAR
STARTCHAR >
ENCODING -1 62
SWIDTH 0 0
DWIDTH 7 0
BBX 6 6 0 -1
BITMAP
3000
1800
0c00
1800
7000
c000
ENDCHAR
STARTCHAR ?
ENCODING -1 63
SWIDTH 0 0
DWIDTH 7 0
BBX 5 8 2 -1
BITMAP
7000
d800
9800
3000
6000
0000
c000
c000
ENDCHAR
STARTCHAR @
ENCODING -1 64
SWIDTH 0 0
DWIDTH 7 0
BBX 6 9 1 -2
BITMAP
3800
6c00
c400
9c00
b400
b400
9c00
c000
7800
ENDCHAR
STARTCHAR A
ENCODING -1 65
SWIDTH 0 0
DWIDTH 7 0
BBX 8 8 -1 -1
BITMAP
0e00
0600
0a00
1a00
1e00
3200
6200
e700
ENDCHAR
STARTCHAR B
ENCODING -1 66
SWIDTH 0 0
DWIDTH 7 0
BBX 8 8 -1 -1
BITMAP
3e00
1b00
1300
3e00
3300
6300
6600
fc00
ENDCHAR
STARTCHAR C
ENCODING -1 67
SWIDTH 0 0
DWIDTH 7 0
BBX 8 8 0 -1
BITMAP
1e00
3300
6200
6000
c000
cc00
d800
7000
ENDCHAR
STARTCHAR D
ENCODING -1 68
SWIDTH 0 0
DWIDTH 7 0
BBX 8 8 -1 -1
BITMAP
3e00
1b00
3300
3300
3300
6600
6e00
f800
ENDCHAR
STARTCHAR E
ENCODING -1 69
SWIDTH 0 0
DWIDTH 7 0
BBX 8 8 0 -1
BITMAP
3f00
1900
3000
3c00
3400
6000
6400
fc00
ENDCHAR
STARTCHAR F
ENCODING -1 70
SWIDTH 0 0
DWIDTH 7 0
BBX 8 8 0 -1
BITMAP
3f00
1900
3000
3c00
3400
6000
6000
f000
ENDCHAR
STARTCHAR G
ENCODING -1 71
SWIDTH 0 0
DWIDTH 7 0
BBX 8 8 0 -1
BITMAP
1e00
3300
6200
6000
ce00
c400
cc00
7800
ENDCHAR
STARTCHAR H
ENCODING -1 72
SWIDTH 0 0
DWIDTH 7 0
BBX 9 8 -1 -1
BITMAP
1d80
1980
1100
3f00
3200
6600
6400
ee00
ENDCHAR
STARTCHAR I
ENCODING -1 73
SWIDTH 0 0
DWIDTH 7 0
BBX 8 8 0 -1
BITMAP
3f00
0c00
0c00
1800
1800
3000
3000
fc00
ENDCHAR
STARTCHAR J
ENCODING -1 74
SWIDTH 0 0
DWIDTH 7 0
BBX 8 8 0 -1
BITMAP
0f00
0600
0600
0c00
0c00
d800
d800
7000
ENDCHAR
STARTCHAR K
ENCODING -1 75
SWIDTH 0 0
DWIDTH 7 0
BBX 9 8 -1 -1
BITMAP
3d80
1b00
1600
3c00
3800
6c00
6600
f700
ENDCHAR
STARTCHAR L
ENCODING -1 76
SWIDTH 0 0
DWIDTH 7 0
BBX 6 8 0 -1
BITMAP
3c00
1800
1800
3000
3000
6000
6400
fc00
ENDCHAR
STARTCHAR M
ENCODING -1 77
SWIDTH 0 0
DWIDTH 7 0
BBX 9 8 -1 -1
BITMAP
3980
1b80
1f80
3500
3300
6300
6600
ef00
ENDCHAR
STARTCHAR N
ENCODING -1 78
SWIDTH 0 0
DWIDTH 7 0
BBX 9 8 -1 -1
BITMAP
3980
1900
3b00
2a00
2e00
6c00
4c00
ec00
ENDCHAR
STARTCHAR O
ENCODING -1 79
SWIDTH 0 0
DWIDTH 7 0
BBX 7 8 0 -1
BITMAP
1c00
3600
6600
c600
c600
cc00
d800
7000
ENDCHAR
STARTCHAR P
ENCODING -1 80
SWIDTH 0 0
DWIDTH 7 0
BBX 8 8 -1 -1
BITMAP
3e00
1b00
3300
3600
3c00
6000
6000
f000
ENDCHAR
STARTCHAR Q
ENCODING -1 81
SWIDTH 0 0
DWIDTH 7 0
BBX 7 10 0 -3
BITMAP
1c00
3600
6600
6600
cc00
cc00
d800
7000
f400
9800
ENDCHAR
STARTCHAR R
ENCODING -1 82
SWIDTH 0 0
DWIDTH 7 0
BBX 8 8 -1 -1
BITMAP
3e00
1b00
1300
3600
3c00
6400
6600
f700
ENDCHAR
STARTCHAR S
ENCODING -1 83
SWIDTH 0 0
DWIDTH 7 0
BBX 8 8 0 -1
BITMAP
1e00
3300
3200
3800
1c00
cc00
cc00
7800
ENDCHAR
STARTCHAR T
ENCODING -1 84
SWIDTH 0 0
DWIDTH 7 0
BBX 7 8 1 -1
BITMAP
fe00
9a00
1800
3000
3000
6000
6000
f000
ENDCHAR
STARTCHAR U
ENCODING -1 85
SWIDTH 0 0
DWIDTH 7 0
BBX 8 8 0 -1
BITMAP
7700
6600
6600
cc00
cc00
cc00
d800
7000
ENDCHAR
STARTCHAR V
ENCODING -1 86
SWIDTH 0 0
DWIDTH 7 0
BBX 7 8 1 -1
BITMAP
f600
6400
6c00
6800
6800
7000
6000
4000
ENDCHAR
STARTCHAR W
ENCODING -1 87
SWIDTH 0 0
DWIDTH 7 0
BBX 8 8 0 -1
BITMAP
f700
6200
6200
d400
d400
f800
d000
9000
ENDCHAR
STARTCHAR X
ENCODING -1 88
SWIDTH 0 0
DWIDTH 7 0
BBX 9 8 -1 -1
BITMAP
3b80
1b00
0e00
0c00
1c00
3400
6600
ef00
ENDCHAR
STARTCHAR Y
ENCODING -1 89
SWIDTH 0 0
DWIDTH 7 0
BBX 8 8 1 -1
BITMAP
f700
6600
6c00
3800
3000
6000
6000
f000
ENDCHAR
STARTCHAR Z
ENCODING -1 90
SWIDTH 0 0
DWIDTH 7 0
BBX 7 8 0 -1
BITMAP
3e00
2600
0c00
1800
3000
6000
c400
fc00
ENDCHAR
STARTCHAR [
ENCODING -1 91
SWIDTH 0 0
DWIDTH 7 0
BBX 6 10 1 -3
BITMAP
1c00
1800
1000
3000
3000
2000
6000
6000
c000
e000
ENDCHAR
STARTCHAR \
ENCODING -1 92
SWIDTH 0 0
DWIDTH 7 0
BBX 5 10 1 -2
BITMAP
8000
8000
4000
4000
2000
2000
1000
1000
0800
0800
ENDCHAR
STARTCHAR ]
ENCODING -1 93
SWIDTH 0 0
DWIDTH 7 0
BBX 6 10 0 -3
BITMAP
1c00
0c00
1800
1800
1000
3000
3000
2000
6000
e000
ENDCHAR
STARTCHAR ^
ENCODING -1 94
SWIDTH 0 0
DWIDTH 7 0
BBX 5 3 2 4
BITMAP
3000
5800
8800
ENDCHAR
STARTCHAR _
ENCODING -1 95
SWIDTH 0 0
DWIDTH 7 0
BBX 7 1 -1 -3
BITMAP
fe00
ENDCHAR
STARTCHAR `
ENCODING -1 96
SWIDTH 0 0
DWIDTH 7 0
BBX 3 3 2 4
BITMAP
c000
6000
2000
ENDCHAR
STARTCHAR a
ENCODING -1 97
SWIDTH 0 0
DWIDTH 7 0
BBX 7 6 0 -1
BITMAP
3c00
0600
7e00
cc00
cc00
7e00
ENDCHAR
STARTCHAR b
ENCODING -1 98
SWIDTH 0 0
DWIDTH 7 0
BBX 8 8 -1 -1
BITMAP
3800
1800
1e00
3300
3300
6300
6600
fc00
ENDCHAR
STARTCHAR c
ENCODING -1 99
SWIDTH 0 0
DWIDTH 7 0
BBX 7 6 0 -1
BITMAP
3c00
6600
c000
c000
cc00
7800
ENDCHAR
STARTCHAR d
ENCODING -1 100
SWIDTH 0 0
DWIDTH 7 0
BBX 8 8 0 -1
BITMAP
0700
0300
3e00
6600
c600
cc00
cc00
7e00
ENDCHAR
STARTCHAR e
ENCODING -1 101
SWIDTH 0 0
DWIDTH 7 0
BBX 7 6 0 -1
BITMAP
3c00
6600
fe00
c000
cc00
7800
ENDCHAR
STARTCHAR f
ENCODING -1 102
SWIDTH 0 0
DWIDTH 7 0
BBX 9 8 0 -1
BITMAP
0780
0c00
7f00
1800
1800
3000
3000
fc00
ENDCHAR
STARTCHAR g
ENCODING -1 103
SWIDTH 0 0
DWIDTH 7 0
BBX 9 9 -1 -4
BITMAP
1d80
3300
6300
6600
6600
3e00
0c00
1c00
f000
ENDCHAR
STARTCHAR h
ENCODING -1 104
SWIDTH 0 0
DWIDTH 7 0
BBX 8 8 -1 -1
BITMAP
3800
1800
1600
3b00
3300
6600
6600
ef00
ENDCHAR
STARTCHAR i
ENCODING -1 105
SWIDTH 0 0
DWIDTH 7 0
BBX 6 8 0 -1
BITMAP
0c00
0000
7800
1800
1800
3000
3000
fc00
ENDCHAR
STARTCHAR j
ENCODING -1 106
SWIDTH 0 0
DWIDTH 7 0
BBX 7 11 -1 -4
BITMAP
0600
0000
3e00
0c00
0c00
0c00
1800
1800
1800
3000
e000
ENDCHAR
STARTCHAR k
ENCODING -1 107
SWIDTH 0 0
DWIDTH 7 0
BBX 8 8 -1 -1
BITMAP
3800
1800
3300
3600
3c00
7800
6c00
e600
ENDCHAR
STARTCHAR l
ENCODING -1 108
SWIDTH 0 0
DWIDTH 7 0
BBX 6 8 0 -1
BITMAP
3c00
0c00
1800
1800
1800
3000
3000
fc00
ENDCHAR
STARTCHAR m
ENCODING -1 109
SWIDTH 0 0
DWIDTH 7 0
BBX 7 6 0 -1
BITMAP
d400
7e00
6a00
d400
d400
d600
ENDCHAR
STARTCHAR n
ENCODING -1 110
SWIDTH 0 0
DWIDTH 7 0
BBX 8 6 -1 -1
BITMAP
6e00
3b00
3300
6600
6600
f700
ENDCHAR
STARTCHAR o
ENCODING -1 111
SWIDTH 0 0
DWIDTH 7 0
BBX 7 6 0 -1
BITMAP
3c00
6600
c600
c600
cc00
7800
ENDCHAR
STARTCHAR p
ENCODING -1 112
SWIDTH 0 0
DWIDTH 7 0
BBX 9 9 -2 -4
BITMAP
3700
1980
1980
3180
3300
3e00
6000
6000
f000
ENDCHAR
STARTCHAR q
ENCODING -1 113
SWIDTH 0 0
DWIDTH 7 0
BBX 8 9 0 -4
BITMAP
3f00
6600
c600
cc00
cc00
7c00
1800
1800
3c00
ENDCHAR
STARTCHAR r
ENCODING -1 114
SWIDTH 0 0
DWIDTH 7 0
BBX 7 6 0 -1
BITMAP
6e00
3a00
3000
6000
6000
f800
ENDCHAR
STARTCHAR s
ENCODING -1 115
SWIDTH 0 0
DWIDTH 7 0
BBX 6 6 0 -1
BITMAP
3c00
6400
3000
1800
cc00
f800
ENDCHAR
STARTCHAR t
ENCODING -1 116
SWIDTH 0 0
DWIDTH 7 0
BBX 5 8 1 -1
BITMAP
3000
3000
f800
6000
6000
c000
c800
7000
ENDCHAR
STARTCHAR u
ENCODING -1 117
SWIDTH 0 0
DWIDTH 7 0
BBX 7 6 0 -1
BITMAP
ee00
6600
6600
cc00
cc00
7600
ENDCHAR
STARTCHAR v
ENCODING -1 118
SWIDTH 0 0
DWIDTH 7 0
BBX 8 6 0 -1
BITMAP
f700
6600
6400
7800
3000
3000
ENDCHAR
STARTCHAR w
ENCODING -1 119
SWIDTH 0 0
DWIDTH 7 0
BBX 8 6 0 -1
BITMAP
f700
6200
6a00
6a00
7c00
6800
ENDCHAR
STARTCHAR x
ENCODING -1 120
SWIDTH 0 0
DWIDTH 7 0
BBX 7 6 0 -1
BITMAP
7600
3c00
1800
3800
6c00
cc00
ENDCHAR
STARTCHAR y
ENCODING -1 121
SWIDTH 0 0
DWIDTH 7 0
BBX 8 9 0 -4
BITMAP
f700
6600
6400
2c00
3800
3000
6000
c000
c000
ENDCHAR
STARTCHAR z
ENCODING -1 122
SWIDTH 0 0
DWIDTH 7 0
BBX 7 6 0 -1
BITMAP
7e00
6c00
1800
3000
6c00
fc00
ENDCHAR
STARTCHAR {
ENCODING -1 123
SWIDTH 0 0
DWIDTH 7 0
BBX 6 10 2 -3
BITMAP
1c00
3000
3000
2000
c000
6000
6000
c000
c000
6000
ENDCHAR
STARTCHAR |
ENCODING -1 124
SWIDTH 0 0
DWIDTH 7 0
BBX 3 9 2 -2
BITMAP
2000
2000
2000
4000
4000
4000
8000
8000
8000
ENDCHAR
STARTCHAR }
ENCODING -1 125
SWIDTH 0 0
DWIDTH 7 0
BBX 6 10 -1 -3
BITMAP
1800
0c00
1800
1800
0c00
1000
3000
3000
3000
c000
ENDCHAR
STARTCHAR ~
ENCODING -1 126
SWIDTH 0 0
DWIDTH 7 0
BBX 7 3 0 1
BITMAP
3200
7c00
9800
ENDCHAR
ENDFONT
